<svg width="48" height="48" viewBox="0 0 48 48" fill="none" xmlns="http://www.w3.org/2000/svg">
<path d="M32.8808 33.9551C32.8793 33.9512 32.8774 33.9468 32.8754 33.9429L23.9999 14L27.9486 2.31641C28.0502 2.01123 27.9989 1.67627 27.8109 1.41553C27.623 1.1543 27.3212 1 26.9999 1H6.99992C6.67863 1 6.37687 1.1543 6.18888 1.41553C6.00089 1.67627 5.94962 2.01123 6.05118 2.31641L9.99992 14L1.11905 33.9551C-0.113855 36.8603 0.190345 40.166 1.93254 42.7974C3.67472 45.4292 6.59904 47 9.7548 47H24.245C27.4008 47 30.3251 45.4292 32.0673 42.7974C33.8095 40.166 34.1137 36.8603 32.8808 33.9551Z" fill="#A67C52"/>
<path d="M17 15C16.4477 15 16 14.5522 16 14V8C16 7.44775 16.4477 7 17 7C17.5523 7 18 7.44775 18 8V14C18 14.5522 17.5523 15 17 15Z" fill="#87613E"/>
<path d="M17.2427 30.0298C15.4295 29.5768 14.9582 29.32 15.0028 28.3863C15.0402 27.6041 15.7169 27 16.5 27H17.5C18.3421 27 18.9725 27.6923 19.0006 28.534C19.0185 29.0705 19.4591 29.5 20 29.5C20.5522 29.5 21 29.0522 21 28.5C21 26.7415 19.6916 25.2958 18 25.0505V23C18 22.4477 17.5523 22 17 22C16.4477 22 16 22.4477 16 23V25.0505C14.3083 25.2958 13 26.7415 13 28.5C13 31.0308 15.2612 31.5962 16.7573 31.9702C18.5705 32.4232 19.0418 32.68 18.9972 33.6137C18.9598 34.3959 18.2831 35 17.5 35H16.5C15.6579 35 15.0275 34.3077 14.9994 33.466C14.9815 32.9295 14.5409 32.5 14 32.5C13.4477 32.5 13 32.9478 13 33.5C13 35.2585 14.3083 36.7042 16 36.9495V39C16 39.5523 16.4477 40 17 40C17.5523 40 18 39.5523 18 39V36.9495C19.6916 36.7042 21 35.2585 21 33.5C21 30.9692 18.7388 30.4038 17.2427 30.0298Z" fill="#EFD358"/>
<path d="M24 15H10C9.44775 15 9 14.5523 9 14C9 13.4477 9.44775 13 10 13H24C24.5522 13 25 13.4477 25 14C25 14.5523 24.5522 15 24 15Z" fill="#EFD358"/>
<g clip-path="url(#clip0)">
<path d="M35.9619 42.4443H24.8507C24.4672 42.4443 24.1562 42.7553 24.1562 43.1388V45.2221C24.1562 47.0457 27.3002 47.9999 30.4063 47.9999C33.5123 47.9999 36.6563 47.0457 36.6563 45.2221V43.1388C36.6563 42.7553 36.3454 42.4443 35.9619 42.4443Z" fill="#D8BC48"/>
<path d="M30.4063 40.3618C27.3002 40.3618 24.1562 41.316 24.1562 43.1396C24.1562 44.9632 27.3002 45.9174 30.4063 45.9174C33.5123 45.9174 36.6563 44.9632 36.6563 43.1396C36.6563 41.316 33.5123 40.3618 30.4063 40.3618Z" fill="#EFD358"/>
<path d="M35.9619 38.9722H24.8507C24.4672 38.9722 24.1562 39.2831 24.1562 39.6666V41.75C24.1562 43.5736 27.3002 44.5277 30.4063 44.5277C33.5123 44.5277 36.6563 43.5736 36.6563 41.75V39.6666C36.6563 39.2831 36.3454 38.9722 35.9619 38.9722Z" fill="#D8BC48"/>
<path d="M30.4063 36.8887C27.3002 36.8887 24.1562 37.8429 24.1562 39.6665C24.1562 41.4901 27.3002 42.4442 30.4063 42.4442C33.5123 42.4442 36.6563 41.4901 36.6563 39.6665C36.6563 37.8429 33.5123 36.8887 30.4063 36.8887Z" fill="#EFD358"/>
<path d="M35.9619 35.5H24.8507C24.4672 35.5 24.1562 35.8109 24.1562 36.1944V38.2778C24.1562 40.1014 27.3002 41.0556 30.4063 41.0556C33.5123 41.0556 36.6563 40.1014 36.6563 38.2778V36.1944C36.6563 35.8109 36.3454 35.5 35.9619 35.5Z" fill="#D8BC48"/>
<path d="M30.4063 33.4165C27.3002 33.4165 24.1562 34.3707 24.1562 36.1943C24.1562 38.0179 27.3002 38.9721 30.4063 38.9721C33.5123 38.9721 36.6563 38.0179 36.6563 36.1943C36.6563 34.3707 33.5123 33.4165 30.4063 33.4165Z" fill="#EFD358"/>
<path d="M35.9619 32.0278H24.8507C24.4672 32.0278 24.1562 32.3388 24.1562 32.7223V34.8056C24.1562 36.6292 27.3002 37.5834 30.4063 37.5834C33.5123 37.5834 36.6563 36.6292 36.6563 34.8056V32.7223C36.6563 32.3388 36.3454 32.0278 35.9619 32.0278Z" fill="#D8BC48"/>
<path d="M30.4063 29.9443C27.3002 29.9443 24.1562 30.8985 24.1562 32.7221C24.1562 34.5457 27.3002 35.4999 30.4063 35.4999C33.5123 35.4999 36.6563 34.5457 36.6563 32.7221C36.6563 30.8985 33.5123 29.9443 30.4063 29.9443Z" fill="#EFD358"/>
<path d="M35.9619 28.5557H24.8507C24.4672 28.5557 24.1562 28.8666 24.1562 29.2501V31.3335C24.1562 33.1571 27.3002 34.1112 30.4063 34.1112C33.5123 34.1112 36.6563 33.1571 36.6563 31.3335V29.2501C36.6563 28.8666 36.3454 28.5557 35.9619 28.5557Z" fill="#D8BC48"/>
<path d="M30.4063 26.4722C27.3002 26.4722 24.1562 27.4264 24.1562 29.25C24.1562 31.0736 27.3002 32.0277 30.4063 32.0277C33.5123 32.0277 36.6563 31.0736 36.6563 29.25C36.6563 27.4264 33.5123 26.4722 30.4063 26.4722Z" fill="#EFD358"/>
<path d="M35.9619 25.0835H24.8507C24.4672 25.0835 24.1562 25.3944 24.1562 25.7779V27.8613C24.1562 29.6849 27.3002 30.6391 30.4063 30.6391C33.5123 30.6391 36.6563 29.6849 36.6563 27.8613V25.7779C36.6563 25.3944 36.3454 25.0835 35.9619 25.0835Z" fill="#D8BC48"/>
<path d="M30.4063 23C27.3002 23 24.1562 23.9542 24.1562 25.7778C24.1562 27.6014 27.3002 28.5556 30.4063 28.5556C33.5123 28.5556 36.6563 27.6014 36.6563 25.7778C36.6563 23.9542 33.5123 23 30.4063 23Z" fill="#EFD358"/>
<path opacity="0.1" d="M36 28C33.7334 28.5309 32 29.6617 32 31.4828V33.4045C32 33.6209 32.0277 33.8352 32.0824 34.0451C32.0277 34.2549 32 34.4692 32 34.6856V36.6073C32 36.8238 32.0277 37.038 32.0824 37.2479C32.0277 37.4578 32 37.672 32 37.8885V39.8102C32 40.0267 32.0277 40.2409 32.0824 40.4508C32.0277 40.6607 32 40.8749 32 41.0914V43.0131C32 43.2295 32.0277 43.4438 32.0824 43.6536C32.0277 43.8635 32 44.0778 32 44.2942V46.2159C32 46.4324 32.0277 46.6466 32.0824 46.8565C32.0277 47.0664 32 47.2806 32 47.4971V48C34.1955 47.6941 36 46.8754 36 45.5754V43.6536C36 43.4247 35.9397 43.2121 35.8357 43.0131C35.9397 42.8141 36 42.6014 36 42.3725V40.4508C36 40.2219 35.9397 40.0092 35.8357 39.8102C35.9397 39.6112 36 39.3986 36 39.1696V37.2479C36 37.019 35.9397 36.8064 35.8357 36.6073C35.9397 36.4083 36 36.1957 36 35.9668V34.0451C36 33.8161 35.9397 33.6035 35.8357 33.4045C35.9397 33.2055 36 32.9928 36 32.7639V30.8422C36 30.6133 35.9397 30.4006 35.8357 30.2016C35.9397 30.0026 36 29.79 36 29.561V28Z" fill="black"/>
<path d="M43.9375 43.8125H34.9375C34.6269 43.8125 34.375 44.0644 34.375 44.375V46.0625C34.375 47.5396 36.9216 48.3125 39.4375 48.3125C41.9534 48.3125 44.5 47.5396 44.5 46.0625V44.375C44.5 44.0644 44.2481 43.8125 43.9375 43.8125Z" fill="#D8BC48"/>
<path d="M39.4375 42.125C36.9216 42.125 34.375 42.8979 34.375 44.375C34.375 45.8521 36.9216 46.625 39.4375 46.625C41.9534 46.625 44.5 45.8521 44.5 44.375C44.5 42.8979 41.9534 42.125 39.4375 42.125Z" fill="#EFD358"/>
<path d="M43.9375 41H34.9375C34.6269 41 34.375 41.2519 34.375 41.5625V43.25C34.375 44.7271 36.9216 45.5 39.4375 45.5C41.9534 45.5 44.5 44.7271 44.5 43.25V41.5625C44.5 41.2519 44.2481 41 43.9375 41Z" fill="#D8BC48"/>
<path d="M39.4375 39.3125C36.9216 39.3125 34.375 40.0854 34.375 41.5625C34.375 43.0396 36.9216 43.8125 39.4375 43.8125C41.9534 43.8125 44.5 43.0396 44.5 41.5625C44.5 40.0854 41.9534 39.3125 39.4375 39.3125Z" fill="#EFD358"/>
<path d="M43.9375 38.1875H34.9375C34.6269 38.1875 34.375 38.4394 34.375 38.75V40.4375C34.375 41.9146 36.9216 42.6875 39.4375 42.6875C41.9534 42.6875 44.5 41.9146 44.5 40.4375V38.75C44.5 38.4394 44.2481 38.1875 43.9375 38.1875Z" fill="#D8BC48"/>
<path d="M39.4375 36.5C36.9216 36.5 34.375 37.2729 34.375 38.75C34.375 40.2271 36.9216 41 39.4375 41C41.9534 41 44.5 40.2271 44.5 38.75C44.5 37.2729 41.9534 36.5 39.4375 36.5Z" fill="#EFD358"/>
<path d="M43.9375 35.375H34.9375C34.6269 35.375 34.375 35.6269 34.375 35.9375V37.625C34.375 39.1021 36.9216 39.875 39.4375 39.875C41.9534 39.875 44.5 39.1021 44.5 37.625V35.9375C44.5 35.6269 44.2481 35.375 43.9375 35.375Z" fill="#D8BC48"/>
<path d="M39.4375 33.6875C36.9216 33.6875 34.375 34.4604 34.375 35.9375C34.375 37.4146 36.9216 38.1875 39.4375 38.1875C41.9534 38.1875 44.5 37.4146 44.5 35.9375C44.5 34.4604 41.9534 33.6875 39.4375 33.6875Z" fill="#EFD358"/>
<path d="M43.9375 32.5625H34.9375C34.6269 32.5625 34.375 32.8144 34.375 33.125V34.8125C34.375 36.2896 36.9216 37.0625 39.4375 37.0625C41.9534 37.0625 44.5 36.2896 44.5 34.8125V33.125C44.5 32.8144 44.2481 32.5625 43.9375 32.5625Z" fill="#D8BC48"/>
<path d="M39.4375 30.875C36.9216 30.875 34.375 31.6479 34.375 33.125C34.375 34.6021 36.9216 35.375 39.4375 35.375C41.9534 35.375 44.5 34.6021 44.5 33.125C44.5 31.6479 41.9534 30.875 39.4375 30.875Z" fill="#EFD358"/>
<path d="M43.9375 29.75H34.9375C34.6269 29.75 34.375 30.0019 34.375 30.3125V32C34.375 33.4771 36.9216 34.25 39.4375 34.25C41.9534 34.25 44.5 33.4771 44.5 32V30.3125C44.5 30.0019 44.2481 29.75 43.9375 29.75Z" fill="#D8BC48"/>
<path d="M39.4375 28.0625C36.9216 28.0625 34.375 28.8354 34.375 30.3125C34.375 31.7896 36.9216 32.5625 39.4375 32.5625C41.9534 32.5625 44.5 31.7896 44.5 30.3125C44.5 28.8354 41.9534 28.0625 39.4375 28.0625Z" fill="#EFD358"/>
</g>
<defs>
<clipPath id="clip0">
<rect width="27" height="27" fill="white" transform="translate(21 21)"/>
</clipPath>
</defs>
</svg>
