<svg width="48" height="48" viewBox="0 0 48 48" fill="none" xmlns="http://www.w3.org/2000/svg">
<path opacity="0.1" d="M1 43C1 44.1045 1.89545 45 3 45H45C46.1045 45 47 44.1045 47 43V11H1V43Z" fill="#BDBDBD"/>
<path d="M45 3H3C1.89545 3 1 3.89539 1 5V11H47V5C47 3.89539 46.1045 3 45 3Z" fill="#A5AFFB"/>
<path d="M41 42C42.6569 42 44 40.6569 44 39C44 37.3431 42.6569 36 41 36C39.3431 36 38 37.3431 38 39C38 40.6569 39.3431 42 41 42Z" fill="#6979F8"/>
<circle opacity="0.5" cx="5" cy="7" r="1" fill="white"/>
<circle opacity="0.5" cx="8" cy="7" r="1" fill="white"/>
<circle opacity="0.5" cx="11" cy="7" r="1" fill="white"/>
<rect opacity="0.1" x="1" y="11" width="46" height="4" fill="#1A1A1A"/>
</svg>
