<svg width="48" height="48" viewBox="0 0 48 48" fill="none" xmlns="http://www.w3.org/2000/svg">
<path opacity="0.1" d="M1 43C1 44.1045 1.89545 45 3 45H45C46.1045 45 47 44.1045 47 43V11H1V43Z" fill="#BDBDBD"/>
<rect opacity="0.1" x="1" y="11" width="46" height="4" fill="#1A1A1A"/>
<path d="M45 3H3C1.89545 3 1 3.89539 1 5V11H47V5C47 3.89539 46.1045 3 45 3Z" fill="#A5AFFB"/>
<circle opacity="0.5" cx="6" cy="7" r="1" fill="white"/>
<circle opacity="0.5" cx="9" cy="7" r="1" fill="white"/>
<circle opacity="0.5" cx="12" cy="7" r="1" fill="white"/>
<path d="M7 42C8.65685 42 10 40.6569 10 39C10 37.3431 8.65685 36 7 36C5.34315 36 4 37.3431 4 39C4 40.6569 5.34315 42 7 42Z" fill="#6979F8"/>
</svg>
