<svg width="48" height="48" viewBox="0 0 48 48" fill="none" xmlns="http://www.w3.org/2000/svg">
<path d="M27.985 43.9618C27.86 43.9618 27.735 43.9388 27.613 43.8898C27.158 43.7078 26.903 43.2228 27.009 42.7438L33.238 14.8418C33.308 14.5278 33.525 14.2668 33.821 14.1398C34.117 14.0138 34.456 14.0388 34.731 14.2028L42.516 18.9048C42.743 19.0428 42.906 19.2638 42.97 19.5218C43.034 19.7788 42.992 20.0508 42.855 20.2778L28.84 43.4778C28.656 43.7858 28.327 43.9618 27.985 43.9618Z" fill="#E86C60"/>
<path d="M28.0119 41.6878C27.9719 41.6878 27.9319 41.6858 27.8909 41.6808C27.3899 41.6198 27.0119 41.1958 27.0109 40.6908L26.9099 6.43883C26.9089 6.13083 27.0499 5.83883 27.2929 5.64883C27.5349 5.45883 27.8519 5.39083 28.1499 5.46483L36.2399 7.46883C36.4979 7.53183 36.7189 7.69683 36.8559 7.92283C36.9929 8.15083 37.0339 8.42283 36.9699 8.67983L28.9809 40.9278C28.8699 41.3798 28.4649 41.6878 28.0119 41.6878Z" fill="#EA9860"/>
<path d="M29 2C29 1.447 28.552 1 28 1H10C9.448 1 9 1.447 9 2V33H29V2Z" fill="#EFD358"/>
<path d="M10 47H28C28.552 47 29 46.553 29 46V33H9V46C9 46.553 9.448 47 10 47Z" fill="#E6E6E6"/>
<path d="M19 43C20.6569 43 22 41.6569 22 40C22 38.3431 20.6569 37 19 37C17.3431 37 16 38.3431 16 40C16 41.6569 17.3431 43 19 43Z" fill="#B3B3B3"/>
</svg>
