<svg width="24" height="24" viewBox="0 0 24 24" fill="none" xmlns="http://www.w3.org/2000/svg">
<path d="M4.50008 12.4168H2.83341C2.60331 12.4168 2.41675 12.2305 2.41675 12.0002C2.41675 11.7699 2.60331 11.5835 2.83341 11.5835H4.50008C4.73019 11.5835 4.91675 11.7699 4.91675 12.0002C4.91675 12.2305 4.73019 12.4168 4.50008 12.4168Z" fill="#43A6DD"/>
<path d="M6.69685 7.11369C6.59025 7.11369 6.48364 7.07299 6.40226 6.99162L5.22388 5.81282C5.06112 5.65006 5.06112 5.38639 5.22388 5.22363C5.38663 5.06087 5.65031 5.06087 5.81307 5.22363L6.99145 6.40242C7.15421 6.56518 7.15421 6.82886 6.99145 6.99162C6.91007 7.07299 6.80346 7.11369 6.69685 7.11369Z" fill="#43A6DD"/>
<path d="M12.0002 4.91675C11.7701 4.91675 11.5835 4.73039 11.5835 4.50008V2.83341C11.5835 2.60311 11.7701 2.41675 12.0002 2.41675C12.2303 2.41675 12.4168 2.60311 12.4168 2.83341V4.50008C12.4168 4.73039 12.2303 4.91675 12.0002 4.91675Z" fill="#43A6DD"/>
<path d="M17.3034 7.11369C17.1968 7.11369 17.0902 7.07299 17.0088 6.99162C16.846 6.82886 16.846 6.56518 17.0088 6.40242L18.1872 5.22363C18.3495 5.06087 18.6136 5.06087 18.7764 5.22363C18.9391 5.38639 18.9391 5.65006 18.7764 5.81282L17.598 6.99162C17.5168 7.07299 17.41 7.11369 17.3034 7.11369Z" fill="#43A6DD"/>
<path d="M21.1668 12.4168H19.5002C19.2701 12.4168 19.0835 12.2305 19.0835 12.0002C19.0835 11.7699 19.2701 11.5835 19.5002 11.5835H21.1668C21.3969 11.5835 21.5835 11.7699 21.5835 12.0002C21.5835 12.2305 21.3969 12.4168 21.1668 12.4168Z" fill="#43A6DD"/>
<path d="M14.0835 19.0835H9.91683V16.9953C7.69276 16.0676 6.30231 13.7448 6.63159 11.2789C6.98597 8.62493 9.32036 6.58462 11.9978 6.5835C14.9858 6.58225 17.4168 9.01274 17.4168 12.0002C17.4168 14.1877 16.0891 16.1587 14.0835 16.9953V19.0835Z" fill="#EFD358"/>
<path d="M12.0001 21.5833H12.0001C10.8495 21.5833 9.91675 20.6506 9.91675 19.5V18.25H14.0834V19.5C14.0834 20.6506 13.1507 21.5833 12.0001 21.5833Z" fill="#E6E6E6"/>
<path d="M14.0834 18.25H9.91675V19.0833H14.0834V18.25Z" fill="#B3B3B3"/>
</svg>
