<svg width="24" height="24" viewBox="0 0 24 24" fill="none" xmlns="http://www.w3.org/2000/svg">
<path d="M18.1738 12.543C18.4292 12.2876 18.4292 11.8854 18.1738 11.6299C17.9269 11.3744 17.5161 11.3744 17.2698 11.6299L12.6398 16.2513V0.981454C12.6398 0.625298 12.3567 0.333008 12.0006 0.333008C11.6444 0.333008 11.3521 0.625298 11.3521 0.981454V16.2513L6.7313 11.6299C6.47583 11.3744 6.06444 11.3744 5.81818 11.6299C5.56272 11.8854 5.56272 12.2876 5.81818 12.543L11.5443 18.2691C11.7911 18.516 12.202 18.516 12.4574 18.2691L18.1738 12.543ZM22.7123 16.7352C22.7123 16.379 22.9954 16.096 23.3516 16.096C23.7077 16.096 24 16.379 24 16.7352V23.0183C24 23.3744 23.7077 23.6667 23.3516 23.6667H0.63924C0.283084 23.6667 0 23.3744 0 23.0183V16.7352C0 16.379 0.283084 16.096 0.63924 16.096C0.995397 16.096 1.28769 16.379 1.28769 16.7352V22.379H22.7123V16.7352Z" fill="#7E8CF9"/>
</svg>
