<svg width="24" height="24" viewBox="0 0 24 24" fill="none" xmlns="http://www.w3.org/2000/svg">
<path d="M4.79279 17.7955C5.13043 16.3874 6.39754 15.3409 7.90909 15.3409C9.67891 15.3409 11.1136 16.7756 11.1136 18.5455C11.1136 20.3153 9.67891 21.75 7.90909 21.75C6.39754 21.75 5.13043 20.7035 4.79279 19.2955H3C2.58579 19.2955 2.25 18.9597 2.25 18.5455C2.25 18.1312 2.58579 17.7955 3 17.7955H4.79279ZM11.3382 11.25C11.6759 9.84199 12.943 8.79545 14.4545 8.79545C16.2244 8.79545 17.6591 10.2302 17.6591 12C17.6591 13.7698 16.2244 15.2045 14.4545 15.2045C12.943 15.2045 11.6759 14.158 11.3382 12.75H3C2.58579 12.75 2.25 12.4142 2.25 12C2.25 11.5858 2.58579 11.25 3 11.25H11.3382ZM4.79279 4.70455C5.13043 3.29653 6.39754 2.25 7.90909 2.25C9.67891 2.25 11.1136 3.68472 11.1136 5.45455C11.1136 7.22437 9.67891 8.65909 7.90909 8.65909C6.39754 8.65909 5.13043 7.61256 4.79279 6.20455H3C2.58579 6.20455 2.25 5.86876 2.25 5.45455C2.25 5.04033 2.58579 4.70455 3 4.70455H4.79279ZM13.6364 6.20455C13.2222 6.20455 12.8864 5.86876 12.8864 5.45455C12.8864 5.04033 13.2222 4.70455 13.6364 4.70455H21C21.4142 4.70455 21.75 5.04033 21.75 5.45455C21.75 5.86876 21.4142 6.20455 21 6.20455H13.6364ZM20.1818 12.75C19.7676 12.75 19.4318 12.4142 19.4318 12C19.4318 11.5858 19.7676 11.25 20.1818 11.25H21C21.4142 11.25 21.75 11.5858 21.75 12C21.75 12.4142 21.4142 12.75 21 12.75H20.1818ZM13.6364 19.2955C13.2222 19.2955 12.8864 18.9597 12.8864 18.5455C12.8864 18.1312 13.2222 17.7955 13.6364 17.7955H21C21.4142 17.7955 21.75 18.1312 21.75 18.5455C21.75 18.9597 21.4142 19.2955 21 19.2955H13.6364ZM7.90909 7.15909C8.85049 7.15909 9.61364 6.39594 9.61364 5.45455C9.61364 4.51315 8.85049 3.75 7.90909 3.75C6.9677 3.75 6.20455 4.51315 6.20455 5.45455C6.20455 6.39594 6.9677 7.15909 7.90909 7.15909ZM14.4545 13.7045C15.3959 13.7045 16.1591 12.9414 16.1591 12C16.1591 11.0586 15.3959 10.2955 14.4545 10.2955C13.5132 10.2955 12.75 11.0586 12.75 12C12.75 12.9414 13.5132 13.7045 14.4545 13.7045ZM7.90909 20.25C8.85049 20.25 9.61364 19.4868 9.61364 18.5455C9.61364 17.6041 8.85049 16.8409 7.90909 16.8409C6.9677 16.8409 6.20455 17.6041 6.20455 18.5455C6.20455 19.4868 6.9677 20.25 7.90909 20.25Z" fill="#6979F8"/>
</svg>
