<svg width="48" height="48" viewBox="0 0 48 48" fill="none" xmlns="http://www.w3.org/2000/svg">
<path d="M24 15C27.866 15 31 11.866 31 8C31 4.13401 27.866 1 24 1C20.134 1 17 4.13401 17 8C17 11.866 20.134 15 24 15Z" fill="#FFCF5C"/>
<path d="M42.9761 24.742L34.976 17.742C34.429 17.2635 33.7269 16.9998 33 17H15C14.2732 16.9998 13.5711 17.2635 13.024 17.742L5.02405 24.742C4.50307 25.1979 4.15582 25.82 4.04118 26.5028C3.92654 27.1855 4.05156 27.8869 4.39505 28.488L8.57305 35.8C8.90365 36.393 9.44987 36.8361 10.0984 37.0371C10.7469 37.2381 11.4479 37.1818 12.056 36.8798C12.6641 36.5777 13.1326 36.0531 13.3642 35.4149C13.5958 34.7767 13.5729 34.0737 13.3 33.452L10.824 27.642L15 23.986V46C15 46.2652 15.1054 46.5196 15.2929 46.7071C15.4805 46.8946 15.7348 47 16 47H32C32.2653 47 32.5196 46.8946 32.7072 46.7071C32.8947 46.5196 33 46.2652 33 46V23.986L37.1781 27.642L34.7 33.452C34.4272 34.0737 34.4043 34.7767 34.6359 35.4149C34.8675 36.0531 35.336 36.5777 35.9441 36.8798C36.5521 37.1818 37.2532 37.2381 37.9017 37.0371C38.5502 36.8361 39.0965 36.393 39.427 35.8L43.605 28.489C43.9488 27.8878 44.074 27.1862 43.9593 26.5032C43.8447 25.8203 43.4973 25.198 42.9761 24.742Z" fill="#FFCF5C"/>
<path d="M28 17L24 22.333L20 17H17.5L23.2 24.6C23.2931 24.7242 23.4139 24.825 23.5528 24.8944C23.6916 24.9639 23.8448 25 24 25C24.1552 25 24.3084 24.9639 24.4472 24.8944C24.5861 24.825 24.7069 24.7242 24.8 24.6L30.5 17H28Z" fill="#FFF8E7"/>
<path d="M26.0642 22.3193L20.3672 24.2019C19.8428 24.3751 19.5582 24.9407 19.7315 25.4651L20.6728 28.3136C20.8461 28.838 21.4116 29.1227 21.936 28.9494L27.633 27.0668C28.1574 26.8935 28.4421 26.3279 28.2688 25.8036L27.3275 22.955C27.1542 22.4306 26.5886 22.146 26.0642 22.3193Z" fill="#6979F8"/>
</svg>
