<svg width="350" height="300" viewBox="0 0 350 300" fill="none" xmlns="http://www.w3.org/2000/svg">
<g clip-path="url(#clip0)">
<path fill-rule="evenodd" clip-rule="evenodd" d="M230.634 125.297C184.896 97.5764 163.305 12.4061 92.6926 63.3011C22.0819 114.196 51.3622 218.762 119.029 244.048C186.694 269.338 273.753 255.052 298.251 208.073C340.114 127.799 261.318 143.893 230.634 125.297Z" fill="#EAECFC"/>
<path fill-rule="evenodd" clip-rule="evenodd" d="M45.0894 223.834C45.0894 223.834 84.0962 184.608 149.244 203.22C214.392 221.833 252.749 205.876 244.659 107.241C244.659 107.241 336.227 120.055 324.487 185.309C310.24 264.5 126.338 294.72 45.0894 223.834Z" fill="#E0E1F4"/>
<path fill-rule="evenodd" clip-rule="evenodd" d="M130.516 62.6501V100.904C130.516 104.202 127.847 106.868 124.558 106.868H43.2256C39.9352 106.868 37.2668 104.202 37.2668 100.904V62.6501C37.2668 59.3514 39.9352 56.6846 43.2256 56.6846H124.558C127.847 56.6846 130.516 59.3514 130.516 62.6501Z" fill="#C7CCEA"/>
<path fill-rule="evenodd" clip-rule="evenodd" d="M130.516 62.6501V65.9607H37.2668V62.6501C37.2668 59.3514 39.9352 56.6846 43.2256 56.6846H124.558C127.847 56.6846 130.516 59.3514 130.516 62.6501Z" fill="#82B9FC"/>
<path fill-rule="evenodd" clip-rule="evenodd" d="M43.7716 61.7647C43.7716 62.4577 43.2119 63.0176 42.5223 63.0176C41.8326 63.0176 41.2729 62.4577 41.2729 61.7647C41.2729 61.0717 41.8326 60.5117 42.5223 60.5117C43.2119 60.5117 43.7716 61.0717 43.7716 61.7647Z" fill="white"/>
<path fill-rule="evenodd" clip-rule="evenodd" d="M48.7715 61.7647C48.7715 62.4577 48.2132 63.0176 47.5222 63.0176C46.8326 63.0176 46.2729 62.4577 46.2729 61.7647C46.2729 61.0717 46.8326 60.5117 47.5222 60.5117C48.2132 60.5117 48.7715 61.0717 48.7715 61.7647Z" fill="white"/>
<path fill-rule="evenodd" clip-rule="evenodd" d="M53.7734 61.7647C53.7734 62.4577 53.2137 63.0176 52.5227 63.0176C51.8331 63.0176 51.2734 62.4577 51.2734 61.7647C51.2734 61.0717 51.8331 60.5117 52.5227 60.5117C53.2137 60.5117 53.7734 61.0717 53.7734 61.7647Z" fill="white"/>
<path fill-rule="evenodd" clip-rule="evenodd" d="M68.6642 88.9227H49.9405C49.3292 88.9227 48.8345 88.4252 48.8345 87.8134V72.6156C48.8345 72.0025 49.3292 71.5063 49.9405 71.5063H68.6642C69.2755 71.5063 69.7702 72.0025 69.7702 72.6156V87.8134C69.7702 88.4252 69.2755 88.9227 68.6642 88.9227Z" fill="white"/>
<path fill-rule="evenodd" clip-rule="evenodd" d="M117.622 97.0704H48.8383C48.1115 97.0704 47.5227 96.4799 47.5227 95.751C47.5227 95.0207 48.1115 94.4302 48.8383 94.4302H117.622C118.348 94.4302 118.937 95.0207 118.937 95.751C118.937 96.4799 118.348 97.0704 117.622 97.0704Z" fill="white"/>
<path fill-rule="evenodd" clip-rule="evenodd" d="M117.622 87.1046H75.892C75.1653 87.1046 74.5764 86.514 74.5764 85.7838C74.5764 85.0549 75.1653 84.4644 75.892 84.4644H117.622C118.348 84.4644 118.937 85.0549 118.937 85.7838C118.937 86.514 118.348 87.1046 117.622 87.1046Z" fill="white"/>
<path fill-rule="evenodd" clip-rule="evenodd" d="M101.738 77.7399H75.8928C75.166 77.7399 74.5771 77.1493 74.5771 76.4204C74.5771 75.6902 75.166 75.0996 75.8928 75.0996H101.738C102.465 75.0996 103.054 75.6902 103.054 76.4204C103.054 77.1493 102.465 77.7399 101.738 77.7399Z" fill="white"/>
<path fill-rule="evenodd" clip-rule="evenodd" d="M9.11597 135.974C9.11597 135.974 10.6358 134.222 11.5668 133.419C13.2432 131.971 15.1675 129.415 21.3185 131.298C21.796 131.446 22.2588 131.64 22.719 131.836C23.2615 132.066 24.9418 132.071 26.6619 130.702C29.3952 128.525 30.4642 126.882 34.2094 126.831C38.5674 126.772 39.2517 132.22 42.6389 133.615C44.794 134.503 50.4795 135.384 51.6559 135.778L9.11597 135.974Z" fill="#E8EAFA"/>
<path fill-rule="evenodd" clip-rule="evenodd" d="M240.377 45.4603C240.377 45.4603 243.363 42.014 245.195 40.4352C248.492 37.5914 252.273 32.565 264.367 36.2693C265.306 36.5579 266.216 36.9397 267.121 37.3241C268.188 37.7776 271.49 37.7883 274.872 35.0961C280.246 30.8159 282.348 27.5864 289.711 27.4853C298.278 27.3696 299.626 38.0809 306.283 40.8222C310.522 42.566 321.701 44.3004 324.012 45.0732L240.377 45.4603Z" fill="#E8EAFA"/>
<path fill-rule="evenodd" clip-rule="evenodd" d="M164.063 89.7285L163.445 87.9541L162.827 89.7285C162.307 91.2248 161.068 92.4884 159.393 93.2346C161.068 93.9808 162.307 95.243 162.827 96.7407L163.445 98.5151L164.063 96.7407C164.584 95.243 165.821 93.9808 167.496 93.2346C165.821 92.4884 164.584 91.2248 164.063 89.7285Z" fill="white"/>
<path fill-rule="evenodd" clip-rule="evenodd" d="M108.226 191.21L107.608 189.434L106.99 191.21C106.468 192.706 105.231 193.968 103.556 194.716C105.231 195.461 106.468 196.724 106.99 198.221L107.608 199.996L108.226 198.221C108.747 196.724 109.983 195.461 111.659 194.716C109.983 193.968 108.747 192.706 108.226 191.21Z" fill="white"/>
<path fill-rule="evenodd" clip-rule="evenodd" d="M275.627 180.517L275.219 179.346L274.812 180.517C274.468 181.504 273.653 182.338 272.547 182.83C273.653 183.322 274.468 184.156 274.812 185.144L275.219 186.315L275.627 185.144C275.971 184.156 276.787 183.322 277.893 182.83C276.787 182.338 275.971 181.504 275.627 180.517Z" fill="white"/>
<path fill-rule="evenodd" clip-rule="evenodd" d="M81.2373 121.608L80.8288 120.437L80.4217 121.608C80.0782 122.594 79.2612 123.428 78.1565 123.921C79.2612 124.413 80.0782 125.247 80.4217 126.234L80.8288 127.405L81.2373 126.234C81.5808 125.247 82.3978 124.413 83.5025 123.921C82.3978 123.428 81.5808 122.594 81.2373 121.608Z" fill="white"/>
<path fill-rule="evenodd" clip-rule="evenodd" d="M213.519 25.6167H174.811C172.699 25.6167 170.987 27.3272 170.987 29.4434V50.4177C170.987 52.5353 172.699 54.2458 174.811 54.2458H176.894V63.8424L186.463 54.2458H213.519C215.63 54.2458 217.343 52.5353 217.343 50.4177V29.4434C217.343 27.3272 215.63 25.6167 213.519 25.6167Z" fill="#9AA5FB"/>
<path fill-rule="evenodd" clip-rule="evenodd" d="M180.243 46.1616H189.375C190.079 46.1616 190.651 46.7349 190.651 47.4412C190.651 48.1475 190.079 48.7194 189.375 48.7194H180.243C179.539 48.7194 178.967 48.1475 178.967 47.4412C178.967 46.7349 179.539 46.1616 180.243 46.1616Z" fill="white"/>
<path fill-rule="evenodd" clip-rule="evenodd" d="M180.243 39.7549H197.07C197.776 39.7549 198.346 40.3282 198.346 41.0344C198.346 41.7407 197.776 42.3127 197.07 42.3127H180.243C179.539 42.3127 178.967 41.7407 178.967 41.0344C178.967 40.3282 179.539 39.7549 180.243 39.7549Z" fill="white"/>
<path fill-rule="evenodd" clip-rule="evenodd" d="M180.243 33.5273H209.172C209.877 33.5273 210.448 34.1006 210.448 34.8056C210.448 35.5132 209.877 36.0851 209.172 36.0851H180.243C179.539 36.0851 178.967 35.5132 178.967 34.8056C178.967 34.1006 179.539 33.5273 180.243 33.5273Z" fill="white"/>
<path fill-rule="evenodd" clip-rule="evenodd" d="M189.523 205.586H234.346C243.341 205.586 250.894 198.797 251.875 189.828L258.339 122.351H213.539L212.625 161.476L189.523 205.586Z" fill="#C5CAE8"/>
<path fill-rule="evenodd" clip-rule="evenodd" d="M189.523 204.859C201.038 204.396 212.553 204.193 224.068 204.006L232.705 203.939C233.402 203.923 234.193 203.951 234.815 203.897C235.468 203.877 236.117 203.824 236.757 203.704C238.047 203.513 239.301 203.133 240.493 202.619C245.304 200.599 248.931 196.088 249.936 190.979C250.166 189.773 250.281 188.262 250.423 186.837L250.845 182.528L251.687 173.909C252.228 168.162 252.856 162.423 253.463 156.681C254.661 145.199 255.927 133.72 257.315 122.253C257.384 121.688 257.896 121.285 258.46 121.353C259.006 121.419 259.4 121.906 259.363 122.45C258.547 133.975 257.611 145.489 256.607 156.997C256.112 162.751 255.64 168.507 255.079 174.255L254.269 182.88L253.866 187.193C253.72 188.64 253.642 190.012 253.347 191.648C252.158 197.884 247.739 203.457 241.817 205.783C240.357 206.385 238.826 206.821 237.263 207.03C236.483 207.159 235.698 207.213 234.911 207.225C234.096 207.269 233.445 207.228 232.705 207.233L224.068 207.165C212.553 206.981 201.038 206.776 189.523 206.314C189.122 206.297 188.812 205.959 188.828 205.556C188.842 205.176 189.15 204.875 189.523 204.859Z" fill="#393F5C"/>
<path d="M215.153 206.86V254.515" stroke="#393F5C" stroke-width="3.2448"/>
<path fill-rule="evenodd" clip-rule="evenodd" d="M79.1262 164.469H223.616V162.216H79.1262V164.469Z" fill="#393F5C"/>
<path fill-rule="evenodd" clip-rule="evenodd" d="M206.576 263.512L208.11 269.025L200.643 271.294L198.309 264.487L206.576 263.512Z" fill="#F1BD9A"/>
<path fill-rule="evenodd" clip-rule="evenodd" d="M161.501 259.509V263.936H168.111L168.848 259.509H161.501Z" fill="#F1BD9A"/>
<path fill-rule="evenodd" clip-rule="evenodd" d="M212.272 131.449L202.288 156.165L202.067 156.714C201.473 158.185 200.049 159.074 198.559 159.067L170.13 158.862C168.979 158.854 168.054 157.912 168.062 156.759C168.07 155.714 168.842 154.854 169.843 154.708L197.975 150.589L195.144 151.003L200.967 127.688C201.8 124.491 205.061 122.576 208.25 123.41C211.438 124.245 213.349 127.516 212.516 130.714C212.452 130.955 212.362 131.223 212.272 131.449Z" fill="#E7AE88"/>
<path fill-rule="evenodd" clip-rule="evenodd" d="M173.218 154.215L163.51 154.014C161.109 154.014 159.163 156.186 159.163 158.868H173.341L173.218 154.215Z" fill="#E7AE88"/>
<path fill-rule="evenodd" clip-rule="evenodd" d="M196.553 134.457L212.099 138.263L214.649 124.369C215.333 120.634 212.742 117.084 208.929 116.532C205.721 116.068 202.624 117.893 201.523 120.896L196.553 134.457Z" fill="#EC4C77"/>
<path fill-rule="evenodd" clip-rule="evenodd" d="M212.625 161.476L164.732 185.853C160.286 188.114 157.6 192.805 157.892 197.796L161.501 259.51H168.848L178.763 193.478L216.051 167.219L212.625 161.476Z" fill="#2B3047"/>
<path fill-rule="evenodd" clip-rule="evenodd" d="M204.173 77.1858C204.173 77.1858 217.483 72.6475 224.476 85.2887C224.881 86.0229 225.326 86.7292 225.868 87.3717C227.289 89.0529 230.248 92.1507 233.513 93.1549C246.466 97.1413 254.662 121.706 228.881 123.891C196.616 126.627 187.455 120.245 192.07 107.346C195.362 98.1455 192.423 91.616 192.423 91.616L204.173 77.1858Z" fill="#21283A"/>
<path fill-rule="evenodd" clip-rule="evenodd" d="M214.798 110.153L207.913 113.227C203.811 115.056 201.179 119.149 201.232 123.65C201.34 132.718 203.39 155.234 211.029 163.852H234.315C237.92 147.898 235.842 123.381 235.842 123.381C236.075 117.37 231.668 112.187 225.712 111.469L214.798 110.153Z" fill="#FF7292"/>
<path fill-rule="evenodd" clip-rule="evenodd" d="M215.44 117.589C213.014 117.871 210.813 116.145 210.502 113.715L208.608 98.8733L217.465 97.8398L219.347 112.58C219.662 115.05 217.904 117.302 215.44 117.589Z" fill="#ECB38C"/>
<path fill-rule="evenodd" clip-rule="evenodd" d="M208.126 109.95L207.772 109.996C201.869 110.768 196.46 106.594 195.69 100.674L194.008 87.741L215.74 84.8999L217.421 97.8325C218.191 103.753 214.029 109.177 208.126 109.95Z" fill="#F1BD9A"/>
<path fill-rule="evenodd" clip-rule="evenodd" d="M218.126 92.8648L216.273 96.7194C216.273 96.7194 213.804 98.8648 213.105 93.4739C212.512 88.9077 209.206 89.7005 209.206 89.7005C209.206 89.7005 197.883 98.2916 191.232 92.3966C185.982 87.7439 194.466 79.2286 204.173 77.1855L216.907 82.7653L218.126 92.8648Z" fill="#21283A"/>
<path fill-rule="evenodd" clip-rule="evenodd" d="M214.989 96.8757C215.228 98.8523 217.018 100.26 218.989 100.021C220.96 99.782 222.364 97.9864 222.125 96.0098C221.887 94.0333 220.096 92.6261 218.126 92.8642C216.155 93.1036 214.75 94.8992 214.989 96.8757Z" fill="#F1BD9A"/>
<path fill-rule="evenodd" clip-rule="evenodd" d="M217.915 98.129C217.957 98.4855 218.28 98.7382 218.635 98.6956C218.99 98.6531 219.242 98.3285 219.2 97.9721C219.157 97.6169 218.834 97.3629 218.48 97.4068C218.124 97.4493 217.872 97.7726 217.915 98.129Z" fill="white"/>
<path fill-rule="evenodd" clip-rule="evenodd" d="M199.55 103.688L205.649 102.386C205.649 102.386 205.942 105.043 202.603 105.523C199.966 105.903 199.55 103.688 199.55 103.688Z" fill="white"/>
<path fill-rule="evenodd" clip-rule="evenodd" d="M234.315 163.852H211.029L173.78 186.425C169.388 189.086 167.647 194.602 169.715 199.313L198.309 264.487L206.576 263.512L191.207 200.621C204.106 200.073 228.055 198.12 234.315 191.124C244.905 179.286 234.315 163.852 234.315 163.852Z" fill="#393F5C"/>
<path fill-rule="evenodd" clip-rule="evenodd" d="M154.905 122.956L168.191 158.765H125.012L112.72 125.033C112.353 124.025 113.1 122.956 114.17 122.956H154.905Z" fill="#82B9FC"/>
<path fill-rule="evenodd" clip-rule="evenodd" d="M154.905 122.956H156.972C158.082 122.956 159.074 123.65 159.459 124.694L171.985 158.765H168.191L154.905 122.956Z" fill="#9CCAFC"/>
<path fill-rule="evenodd" clip-rule="evenodd" d="M128.248 162.215H168.19V158.765H125.13V159.088C125.13 160.814 126.527 162.215 128.248 162.215Z" fill="#70A9EA"/>
<path fill-rule="evenodd" clip-rule="evenodd" d="M168.19 162.215H194.837C195.786 162.215 196.557 161.442 196.557 160.49C196.557 159.536 195.786 158.765 194.837 158.765H168.19V162.215Z" fill="#7AB8EE"/>
<path fill-rule="evenodd" clip-rule="evenodd" d="M144.088 140.756C144.905 143.228 143.92 145.782 141.888 146.456C139.855 147.132 137.545 145.673 136.728 143.199C135.911 140.726 136.896 138.173 138.929 137.498C140.962 136.822 143.273 138.282 144.088 140.756Z" fill="#EAF2F5"/>
<path fill-rule="evenodd" clip-rule="evenodd" d="M230.492 130.773L220.49 155.963L220.269 156.519C219.677 158.012 218.236 158.919 216.724 158.913L188.29 158.727C187.13 158.719 186.196 157.769 186.203 156.605C186.209 155.55 186.988 154.684 187.997 154.534L216.124 150.359L213.309 150.777L219.061 127.04C219.886 123.807 223.167 121.859 226.39 122.685C229.613 123.513 231.557 126.804 230.732 130.035C230.67 130.278 230.581 130.546 230.492 130.773Z" fill="#F1BD9A"/>
<path fill-rule="evenodd" clip-rule="evenodd" d="M191.375 154.011L181.667 153.806C179.266 153.806 177.321 156.021 177.321 158.75H191.499L191.375 154.011Z" fill="#F1BD9A"/>
<path fill-rule="evenodd" clip-rule="evenodd" d="M214.71 133.886L230.255 137.764L232.805 123.609C233.491 119.807 230.9 116.19 227.087 115.628C223.879 115.154 220.782 117.013 219.681 120.073L214.71 133.886Z" fill="#EC4C77"/>
<path fill-rule="evenodd" clip-rule="evenodd" d="M195.798 266.005L192.17 269.596L184.019 271.584C183.18 271.791 182.501 272.406 182.214 273.226L181.801 274.408C181.595 274.996 182.038 275.609 182.659 275.596L208.893 274.956C209.748 274.939 210.41 274.203 210.34 273.349L208.272 265.897L204.308 266.848C202.982 267.289 201.531 267.139 200.324 266.433L198.914 265.61C197.905 265.02 196.628 265.183 195.798 266.005Z" fill="#202E3B"/>
<path fill-rule="evenodd" clip-rule="evenodd" d="M158.144 260.835L154.517 264.426L146.366 266.414C145.526 266.621 144.849 267.236 144.561 268.056L144.147 269.238C143.942 269.826 144.385 270.439 145.005 270.426L168.751 269.925C169.605 269.906 170.268 269.17 170.198 268.317L169.581 260.702L166.654 261.678C165.328 262.12 163.877 261.969 162.67 261.263L161.261 260.44C160.251 259.85 158.974 260.013 158.144 260.835Z" fill="#202E3B"/>
<path fill-rule="evenodd" clip-rule="evenodd" d="M269.254 106.635H335.906C338.167 106.635 340 104.798 340 102.53V83.572C340 81.3055 338.167 79.4673 335.906 79.4673H269.254C266.994 79.4673 265.161 81.3055 265.161 83.572V102.53C265.161 104.798 266.994 106.635 269.254 106.635Z" fill="#4545D1"/>
<path fill-rule="evenodd" clip-rule="evenodd" d="M316.771 100.847H330.562C331.276 100.847 331.853 100.267 331.853 99.5513V86.5509C331.853 85.834 331.276 85.2554 330.562 85.2554H316.771C316.058 85.2554 315.48 85.834 315.48 86.5509V99.5513C315.48 100.267 316.058 100.847 316.771 100.847Z" fill="white"/>
<path fill-rule="evenodd" clip-rule="evenodd" d="M274.422 88.5196H310.029C310.643 88.5196 311.143 88.0195 311.143 87.4023C311.143 86.7851 310.643 86.2837 310.029 86.2837H274.422C273.806 86.2837 273.308 86.7851 273.308 87.4023C273.308 88.0195 273.806 88.5196 274.422 88.5196Z" fill="white"/>
<path fill-rule="evenodd" clip-rule="evenodd" d="M297.599 94.169H310.029C310.644 94.169 311.144 93.6689 311.144 93.0517V93.0504C311.144 92.4332 310.644 91.9331 310.029 91.9331H297.599C296.984 91.9331 296.485 92.4332 296.485 93.0504V93.0517C296.485 93.6689 296.984 94.169 297.599 94.169Z" fill="white"/>
<path fill-rule="evenodd" clip-rule="evenodd" d="M274.422 94.169H289.279C289.895 94.169 290.393 93.6689 290.393 93.0517V93.0504C290.393 92.4332 289.895 91.9331 289.279 91.9331H274.422C273.806 91.9331 273.308 92.4332 273.308 93.0504V93.0517C273.308 93.6689 273.806 94.169 274.422 94.169Z" fill="white"/>
<path fill-rule="evenodd" clip-rule="evenodd" d="M283.336 99.8179H310.029C310.644 99.8179 311.144 99.3178 311.144 98.7006C311.144 98.0835 310.644 97.582 310.029 97.582H283.336C282.721 97.582 282.222 98.0835 282.222 98.7006C282.222 99.3178 282.721 99.8179 283.336 99.8179Z" fill="white"/>
<path fill-rule="evenodd" clip-rule="evenodd" d="M103.322 151.362C103.322 151.362 114.309 151.401 112.025 140.061C112.025 140.061 100.5 141.204 103.322 151.362Z" fill="#7DDFC3"/>
<path fill-rule="evenodd" clip-rule="evenodd" d="M101.945 150.754C101.945 150.754 90.8224 150.793 93.134 139.312C93.134 139.312 104.802 140.47 101.945 150.754Z" fill="#7DDFC3"/>
<path fill-rule="evenodd" clip-rule="evenodd" d="M102.455 150.793C102.455 150.793 94.3563 142.608 103.909 135.392C103.909 135.392 111.584 144.912 102.455 150.793Z" fill="#00C48C"/>
<path fill-rule="evenodd" clip-rule="evenodd" d="M111.343 149.833H93.5701L96.3989 162.209H108.286L111.343 149.833Z" fill="#FFCF5C"/>
<path d="M146.66 164.469V251.757" stroke="#393F5C" stroke-width="2.6"/>
</g>
<defs>
<clipPath id="clip0">
<rect width="331" height="251" fill="white" transform="translate(9 25)"/>
</clipPath>
</defs>
</svg>
