<svg width="48" height="48" viewBox="0 0 48 48" fill="none" xmlns="http://www.w3.org/2000/svg">
<path opacity="0.5" d="M30.3823 11.2252L36.5459 21.0596L35.2743 21.8566L29.1107 12.0222L30.3823 11.2252Z" fill="#A5AFFB"/>
<path opacity="0.5" d="M26.1038 9.93801L26.7424 11.2944L13.4774 17.5399L12.8388 16.1835L26.1038 9.93801Z" fill="#A5AFFB"/>
<path opacity="0.5" d="M13.2165 19.4977L26.1077 31.8823L25.069 32.9635L12.1779 20.5789L13.2165 19.4977Z" fill="#A5AFFB"/>
<path opacity="0.5" d="M11.6956 20.8541L13.8965 35.9185L12.4122 36.1353L10.2114 21.071L11.6956 20.8541Z" fill="#A5AFFB"/>
<path opacity="0.5" d="M13.5907 17.9202L34.7344 22.6143L34.4091 24.0793L13.2654 19.3853L13.5907 17.9202Z" fill="#A5AFFB"/>
<path d="M27.75 38.25C28.4917 38.25 29.2167 38.0301 29.8334 37.618C30.4501 37.206 30.9307 36.6203 31.2145 35.9351C31.4984 35.2498 31.5726 34.4958 31.4279 33.7684C31.2832 33.041 30.9261 32.3728 30.4016 31.8484C29.8772 31.3239 29.209 30.9668 28.4816 30.8221C27.7542 30.6774 27.0002 30.7516 26.3149 31.0355C25.6297 31.3193 25.044 31.7999 24.632 32.4166C24.2199 33.0333 24 33.7583 24 34.5C24.0012 35.4942 24.3967 36.4473 25.0997 37.1503C25.8027 37.8533 26.7558 38.2488 27.75 38.25Z" fill="#FFA26B"/>
<path d="M37.5 27.75C38.2417 27.75 38.9667 27.5301 39.5834 27.118C40.2001 26.706 40.6807 26.1203 40.9645 25.4351C41.2484 24.7498 41.3226 23.9958 41.1779 23.2684C41.0332 22.541 40.6761 21.8728 40.1516 21.3484C39.6272 20.8239 38.959 20.4668 38.2316 20.3221C37.5042 20.1774 36.7502 20.2516 36.0649 20.5355C35.3797 20.8193 34.794 21.2999 34.382 21.9166C33.9699 22.5333 33.75 23.2583 33.75 24C33.7512 24.9942 34.1467 25.9473 34.8497 26.6503C35.5527 27.3533 36.5058 27.7488 37.5 27.75Z" fill="#0084F4"/>
<path d="M10.5 21.75C11.2417 21.75 11.9667 21.5301 12.5834 21.118C13.2001 20.706 13.6807 20.1203 13.9645 19.4351C14.2484 18.7498 14.3226 17.9958 14.1779 17.2684C14.0332 16.541 13.6761 15.8728 13.1516 15.3484C12.6272 14.8239 11.959 14.4668 11.2316 14.3221C10.5042 14.1774 9.75016 14.2516 9.06493 14.5355C8.37971 14.8193 7.79404 15.2999 7.38199 15.9166C6.96993 16.5333 6.75 17.2583 6.75 18C6.75119 18.9942 7.14666 19.9473 7.84966 20.6503C8.55267 21.3533 9.5058 21.7488 10.5 21.75Z" fill="#6979F8"/>
<path d="M28.5 12.75C29.0933 12.75 29.6734 12.5741 30.1667 12.2444C30.6601 11.9148 31.0446 11.4462 31.2716 10.8981C31.4987 10.3499 31.5581 9.74667 31.4424 9.16473C31.3266 8.58279 31.0409 8.04824 30.6213 7.62868C30.2018 7.20912 29.6672 6.9234 29.0853 6.80765C28.5033 6.69189 27.9001 6.7513 27.3519 6.97836C26.8038 7.20543 26.3352 7.58994 26.0056 8.08329C25.6759 8.57664 25.5 9.15666 25.5 9.75C25.5 10.5457 25.8161 11.3087 26.3787 11.8713C26.9413 12.4339 27.7043 12.75 28.5 12.75Z" fill="#00C48C"/>
<path d="M13.5 41.25C14.0933 41.25 14.6734 41.0741 15.1667 40.7444C15.6601 40.4148 16.0446 39.9462 16.2716 39.3981C16.4987 38.8499 16.5581 38.2467 16.4424 37.6647C16.3266 37.0828 16.0409 36.5482 15.6213 36.1287C15.2018 35.7091 14.6672 35.4234 14.0853 35.3076C13.5033 35.1919 12.9001 35.2513 12.3519 35.4784C11.8038 35.7054 11.3352 36.0899 11.0056 36.5833C10.6759 37.0766 10.5 37.6567 10.5 38.25C10.5 39.0457 10.8161 39.8087 11.3787 40.3713C11.9413 40.9339 12.7043 41.25 13.5 41.25Z" fill="#FFCF5C"/>
</svg>
