<svg width="90" height="90" viewBox="0 0 90 90" fill="none" xmlns="http://www.w3.org/2000/svg">
<path d="M53.0798 74.0416C52.3517 74.0416 51.7615 73.4516 51.7615 72.7233V66.1953C51.7615 65.4672 52.3517 64.877 53.0798 64.877C53.8079 64.877 54.3982 65.4672 54.3982 66.1953V72.7233C54.3982 73.4514 53.8079 74.0416 53.0798 74.0416Z" fill="#C0C0C0"/>
<path d="M38.9141 74.0416C38.186 74.0416 37.5957 73.4516 37.5957 72.7233V66.1953C37.5957 65.4672 38.186 64.877 38.9141 64.877C39.6421 64.877 40.2324 65.4672 40.2324 66.1953V72.7233C40.2324 73.4514 39.6421 74.0416 38.9141 74.0416Z" fill="#C0C0C0"/>
<path d="M50.3099 90.0001H41.793C38.0207 90.0001 34.9626 86.942 34.9626 83.1698V74.3587C34.9626 73.4547 35.6955 72.7217 36.5997 72.7217H55.503C56.4071 72.7217 57.1401 73.4547 57.1401 74.3587V83.1698C57.1402 86.942 54.0822 90.0001 50.3099 90.0001Z" fill="#FFCF5C"/>
<path d="M76.0457 29.9945C76.0457 13.3628 62.5092 -0.107112 45.8525 0.000642011C29.3889 0.107517 16.141 13.3748 16.0573 29.8388C16.0058 39.9653 20.9735 48.9337 28.6165 54.4022C31.7116 56.6169 33.5252 60.2081 33.5252 64.0139V64.0145C33.5252 65.1045 34.4088 65.988 35.4987 65.988H56.604C57.694 65.988 58.5775 65.1043 58.5775 64.0145C58.5775 60.1928 60.4176 56.6049 63.5224 54.3766C71.1056 48.9335 76.0457 40.0415 76.0457 29.9945Z" fill="#A5AFFB"/>
<path d="M41.5 65.9881C39.6806 58.1711 38.5054 45.7821 38.5054 31.8356C38.5054 19.5177 39.4222 8.41488 40.8898 0.604047C40.8898 0.604047 44.162 -0.363627 51.1813 0.437758C52.6682 8.25667 53.5985 19.4302 53.5985 31.8349C53.5985 45.7828 52.4216 58.1711 50.603 65.9883L41.5 65.9881Z" fill="#6979F8"/>
<path d="M81.7865 40.5827C81.7865 40.5807 81.7867 40.579 81.7867 40.577C81.7867 37.1326 78.9944 34.3403 75.55 34.3403C72.1055 34.3403 69.3133 37.1326 69.3133 40.577C69.3133 40.579 69.3134 40.5807 69.3134 40.5827C66.1701 40.7001 63.635 43.3059 63.635 46.4764C63.635 49.7212 66.2898 52.376 69.5344 52.376H81.5654C84.8101 52.376 87.4649 49.7212 87.4649 46.4764C87.4649 43.3059 84.9297 40.7001 81.7865 40.5827Z" fill="#EDF8FF"/>
<path d="M19.2013 19.3068C19.2013 19.3049 19.2015 19.3031 19.2015 19.3012C19.2015 15.8567 16.4092 13.0645 12.9648 13.0645C9.52034 13.0645 6.72806 15.8567 6.72806 19.3012C6.72806 19.3031 6.72824 19.3049 6.72824 19.3068C3.58492 19.4242 1.0498 22.03 1.0498 25.2006C1.0498 28.4453 3.70463 31.0999 6.94937 31.0999H18.9803C22.2251 31.0999 24.8799 28.4451 24.8799 25.2006C24.8797 22.03 22.3444 19.4242 19.2013 19.3068Z" fill="#EDF8FF"/>
</svg>
