<svg width="90" height="90" viewBox="0 0 90 90" fill="none" xmlns="http://www.w3.org/2000/svg">
<path fill-rule="evenodd" clip-rule="evenodd" d="M48.354 68.1079H41.9153H26.8916V74.3909C26.8916 84.1462 37.6227 89.9997 37.6227 89.9997C37.6227 89.9997 41.9736 87.6256 45.1345 83.3826C48.2958 87.6258 52.6469 89.9999 52.6469 89.9999C52.6469 89.9999 63.378 84.1462 63.378 74.391V68.1081H48.354V68.1079ZM37.6274 80.8928C36.1354 79.4579 34.6498 77.5483 34.2777 75.4053H40.9688C40.599 77.5541 39.12 79.4597 37.6274 80.8928ZM49.3016 75.4053C49.6737 77.5483 51.1594 79.4579 52.6515 80.8928C54.1442 79.4597 55.6231 77.5541 55.9929 75.4053H49.3016Z" fill="#FF9E86"/>
<path fill-rule="evenodd" clip-rule="evenodd" d="M45.135 68.1079H48.3541V68.1081H63.3781V74.391C63.3781 84.1462 52.647 89.9999 52.647 89.9999C52.647 89.9999 48.2963 87.6258 45.135 83.3826V68.1079ZM49.3019 75.4053C49.674 77.5483 51.1597 79.4579 52.6517 80.8928C54.1444 79.4597 55.6233 77.5541 55.9931 75.4053H49.3019Z" fill="#FF5023"/>
<path d="M12.2972 39.3988V54.4346L5 61.7318V75.4053H34.1892V24.8042L12.2972 39.3988Z" fill="#6979F8"/>
<path d="M77.9725 54.4346V39.3988L56.0806 24.8042V75.4053H85.2697V61.7318L77.9725 54.4346Z" fill="#6979F8"/>
<path d="M63.3782 75.4054V26.5359C63.3782 9.95028 45.1349 0 45.1349 0C45.1349 0 26.8916 9.95028 26.8916 26.5359V75.4054H63.3782Z" fill="#A5AFFB"/>
<path d="M52.4327 21.8921C52.4327 17.862 49.1652 14.5947 45.1353 14.5947C41.1055 14.5947 37.8379 17.862 37.8379 21.8921H52.4327Z" fill="white"/>
<path d="M45.1353 58.3783C49.1655 58.3783 52.4327 54.0222 52.4327 48.6486C52.4327 43.2751 49.1655 38.9189 45.1353 38.9189C41.105 38.9189 37.8379 43.2751 37.8379 48.6486C37.8379 54.0222 41.105 58.3783 45.1353 58.3783Z" fill="white"/>
<rect x="26.8916" y="68.1079" width="36.4866" height="7.29738" fill="#FFCF5C"/>
</svg>
