<svg width="90" height="90" viewBox="0 0 90 90" fill="none" xmlns="http://www.w3.org/2000/svg">
<path d="M18.5042 54.2509C17.4441 51.2518 72.6174 51.2518 71.5517 54.2509H75.5013C76.4133 51.2846 76.9021 48.1371 76.9021 44.8741C76.9019 27.2685 62.6362 13 45.0307 13C27.4251 13 13.1538 27.2685 13.1538 44.8741C13.1538 48.1369 13.6481 51.2846 14.5546 54.2509H18.5042Z" fill="#A5AFFB"/>
<path d="M28.3848 78.0491L44.7937 54.5386L61.1997 78.0491H28.3848Z" fill="#FFE29D"/>
<path d="M72.8652 60.0771H16.6152L24.1134 71.3271H65.3615L72.8652 60.0771Z" fill="#6979F8"/>
<path d="M90 54.2231C90 59.3975 85.8032 63.5971 80.6231 63.5971H9.37125C4.19678 63.5971 0 59.3975 0 54.2231C0 49.043 4.19678 44.8462 9.37125 44.8462H80.6231C85.8032 44.8462 90 49.043 90 54.2231Z" fill="#FFCF5C"/>
<path d="M24.5758 54.3374C24.5758 55.3701 23.7354 56.2105 22.7027 56.2105C21.6646 56.2105 20.824 55.3701 20.824 54.3374C20.824 53.2992 21.6644 52.4614 22.7027 52.4614C23.7354 52.4614 24.5758 53.2992 24.5758 54.3374Z" fill="#FFF8E7"/>
<path d="M39.5773 54.3374C39.5773 55.3701 38.7369 56.2105 37.6986 56.2105C36.6658 56.2105 35.8254 55.3701 35.8254 54.3374C35.8254 53.2992 36.6658 52.4614 37.6986 52.4614C38.7369 52.4614 39.5773 53.2992 39.5773 54.3374Z" fill="#FFF8E7"/>
<path d="M54.5741 54.3374C54.5741 55.3701 53.7392 56.2105 52.701 56.2105C51.6683 56.2105 50.8279 55.3701 50.8279 54.3374C50.8279 53.2992 51.6683 52.4614 52.701 52.4614C53.7392 52.4614 54.5741 53.2992 54.5741 54.3374Z" fill="#FFF8E7"/>
<path d="M69.5756 54.3374C69.5756 55.3701 68.7352 56.2105 67.7025 56.2105C66.6643 56.2105 65.8237 55.3701 65.8237 54.3374C65.8237 53.2992 66.6641 52.4614 67.7025 52.4614C68.7352 52.4614 69.5756 53.2992 69.5756 54.3374Z" fill="#FFF8E7"/>
<path d="M44.9998 20.4131C43.9617 20.4131 43.1211 21.2535 43.1211 22.289C43.1211 23.3246 43.9617 24.165 44.9998 24.165C50.5315 24.165 55.7334 26.3183 59.6445 30.2294C63.5557 34.1405 65.709 39.3426 65.709 44.8741H69.4609C69.4609 31.3664 58.5076 20.4131 44.9998 20.4131Z" fill="white"/>
<rect opacity="0.3" x="31.8708" y="63.625" width="3.75187" height="7.50094" fill="white"/>
<rect opacity="0.3" x="43.1208" y="63.625" width="3.75187" height="7.50094" fill="white"/>
<rect opacity="0.3" x="54.3711" y="63.625" width="3.75187" height="7.50094" fill="white"/>
</svg>
