<svg width="220" height="220" viewBox="0 0 220 220" fill="none" xmlns="http://www.w3.org/2000/svg">
<path d="M155.8 62.8C153.815 62.8 152.2 61.1852 152.2 59.2C152.2 58.5373 151.663 58 151 58C150.337 58 149.8 58.5373 149.8 59.2C149.8 61.1852 148.185 62.8 146.2 62.8C145.537 62.8 145 63.3373 145 64C145 64.6627 145.537 65.2 146.2 65.2C148.185 65.2 149.8 66.8148 149.8 68.8C149.8 69.4627 150.337 70 151 70C151.663 70 152.2 69.4627 152.2 68.8C152.2 66.8148 153.815 65.2 155.8 65.2C156.463 65.2 157 64.6627 157 64C157 63.3373 156.463 62.8 155.8 62.8Z" fill="#6979F8"/>
<path d="M22 42C20.3457 42 19 40.6543 19 39C19 38.4478 18.5527 38 18 38C17.4473 38 17 38.4478 17 39C17 40.6543 15.6543 42 14 42C13.4473 42 13 42.4478 13 43C13 43.5522 13.4473 44 14 44C15.6543 44 17 45.3457 17 47C17 47.5522 17.4473 48 18 48C18.5527 48 19 47.5522 19 47C19 45.3457 20.3457 44 22 44C22.5527 44 23 43.5522 23 43C23 42.4478 22.5527 42 22 42Z" fill="#A5AFFB"/>
<path d="M37.7 53.2C35.5494 53.2 33.8 51.4506 33.8 49.3C33.8 48.5821 33.2186 48 32.5 48C31.7814 48 31.2 48.5821 31.2 49.3C31.2 51.4506 29.4506 53.2 27.3 53.2C26.5814 53.2 26 53.7821 26 54.5C26 55.2179 26.5814 55.8 27.3 55.8C29.4506 55.8 31.2 57.5494 31.2 59.7C31.2 60.4179 31.7814 61 32.5 61C33.2186 61 33.8 60.4179 33.8 59.7C33.8 57.5494 35.5494 55.8 37.7 55.8C38.4186 55.8 39 55.2179 39 54.5C39 53.7821 38.4186 53.2 37.7 53.2Z" fill="#6979F8"/>
<ellipse opacity="0.2" cx="115.5" cy="169.5" rx="82.5" ry="16.5" fill="#BDBDBD"/>
<path d="M49.0413 106.167C39.5537 106.167 31.833 98.4472 31.833 88.9584V76.6667H49.0413V69.2917H26.9163C25.5586 69.2917 24.458 70.3923 24.458 71.75V88.9584C24.458 102.535 35.4644 113.542 49.0413 113.542V106.167Z" fill="#F1964C"/>
<path d="M112.958 106.167C122.446 106.167 130.166 98.4472 130.166 88.9584V76.6667H112.958V69.2917H135.083C136.441 69.2917 137.541 70.3923 137.541 71.75V88.9584C137.541 102.535 126.535 113.542 112.958 113.542V106.167Z" fill="#F1964C"/>
<path d="M98.2077 162.708H95.7493C90.3185 162.708 85.916 158.306 85.916 152.875V133.208H76.0827V152.875C76.0827 158.306 71.6802 162.708 66.2493 162.708H63.791C59.7179 162.708 56.416 166.01 56.416 170.083V172.542H105.583V170.083C105.583 166.01 102.281 162.708 98.2077 162.708Z" fill="#F2BF49"/>
<path d="M81 138.125C60.6659 138.125 44.125 121.583 44.125 101.25V61.9167C44.125 60.5591 45.2245 59.4583 46.5833 59.4583H115.417C116.775 59.4583 117.875 60.5591 117.875 61.9167V101.25C117.875 121.583 101.334 138.125 81 138.125Z" fill="#EFD358"/>
<path d="M169.375 173.625H125.625C123.906 173.625 122.5 172.219 122.5 170.5V139.25H172.5V170.5C172.5 172.219 171.094 173.625 169.375 173.625Z" fill="#D32F2F"/>
<path d="M175.625 139.25H119.375V129.875C119.375 128.156 120.781 126.75 122.5 126.75H172.5C174.219 126.75 175.625 128.156 175.625 129.875V139.25Z" fill="#F44336"/>
<path d="M150.625 139.25H144.375V173.625H150.625V139.25Z" fill="#FF8F00"/>
<path d="M160 117.375H153.75L144.375 126.75H150.625L160 117.375Z" fill="#FF8F00"/>
<path d="M141.25 117.375H135L144.375 126.75V139.25H150.625V126.75L141.25 117.375Z" fill="#FFC107"/>
<path d="M183.708 104.812H173.5C171.519 104.812 169.464 104.33 167.715 103.456L164.424 101.81C164.176 101.686 164.021 101.434 164.021 101.158V90.9498C164.021 90.7789 164.08 90.6137 164.19 90.4827L171.312 81.9356V76.3665C171.312 75.5803 171.72 74.8775 172.403 74.4851C173.081 74.0956 173.889 74.0978 174.562 74.4916C177.059 75.9485 177.146 79.6271 177.146 82.1998V85.8542H185.166C187.177 85.8542 188.812 87.4855 188.812 89.4915C188.812 89.5214 188.81 89.552 188.806 89.5819L187.353 101.206C187.328 103.199 185.703 104.812 183.708 104.812Z" fill="#EEBC99"/>
<path d="M164.75 104.812H158.917C158.514 104.812 158.188 104.486 158.188 104.083V88.0417C158.188 87.6386 158.514 87.3125 158.917 87.3125H164.75C165.153 87.3125 165.479 87.6386 165.479 88.0417V104.083C165.479 104.486 165.153 104.812 164.75 104.812Z" fill="#5A7A84"/>
<path d="M109.596 32.4041C107.062 29.8701 102.938 29.8701 100.404 32.4041C100.263 32.5446 100.129 32.6926 100 32.8476C99.8716 32.6921 99.7371 32.5446 99.5961 32.4036C97.0621 29.8696 92.9381 29.8696 90.4036 32.4036C87.8691 34.9376 87.8696 39.0616 90.4036 41.5961L99.6461 50.8386C99.7436 50.9361 99.8716 50.9851 99.9996 50.9851C100.128 50.9851 100.256 50.9361 100.353 50.8386L109.596 41.5961C112.131 39.0621 112.131 34.9381 109.596 32.4041Z" fill="#E86C60"/>
</svg>
