<svg width="24" height="24" viewBox="0 0 24 24" fill="none" xmlns="http://www.w3.org/2000/svg">
<path d="M22.5 1.5H1.5C0.947715 1.5 0.5 1.94771 0.5 2.5V16.5C0.5 17.0523 0.947715 17.5 1.5 17.5H7.75977L11.6094 22.3125C11.7046 22.4312 11.8481 22.5 12 22.5C12.1519 22.5 12.2954 22.4312 12.3906 22.3125L16.2402 17.5H22.5C23.0523 17.5 23.5 17.0523 23.5 16.5V2.5C23.5 1.94771 23.0523 1.5 22.5 1.5Z" fill="#BADEFC"/>
<path d="M17 8H7C6.72363 8 6.5 7.77637 6.5 7.5C6.5 7.22363 6.72363 7 7 7H17C17.2764 7 17.5 7.22363 17.5 7.5C17.5 7.77637 17.2764 8 17 8Z" fill="white"/>
<path d="M13 12H7C6.72363 12 6.5 11.7764 6.5 11.5C6.5 11.2236 6.72363 11 7 11H13C13.2764 11 13.5 11.2236 13.5 11.5C13.5 11.7764 13.2764 12 13 12Z" fill="white"/>
</svg>
